<svg id="Layer_1" xmlns="http://www.w3.org/2000/svg" viewBox="-188 296.1 234.9 201.9"><style>.st0{font-family:&apos;Marion-Regular&apos;}.st1{font-size:36px}.st2{fill:#FFF}.st2,.st3{stroke:#000;stroke-miterlimit:10}.st3{fill:none;stroke-width:3}.st4{font-size:12px}</style><text transform="translate(-99.264 387.29)" class="st0 st1">T.G.</text><path class="st3" d="M-46.5 448.8l-49.4.3c-2.9 0-5.5-1.5-6.9-4l-24.9-42.7c-1.4-2.5-1.5-5.5 0-8l24.5-42.9c1.4-2.5 4.1-4 6.9-4l49.4-.2c2.9 0 5.5 1.5 6.9 4l24.9 42.7c1.4 2.5 1.5 5.5 0 8l-24.5 42.9c-1.4 2.4-4.1 3.9-6.9 3.9z"/><path class="st3" d="M-118.5 309.2l93.5-.6c2.9 0 5.5 1.5 7 4l47.3 80.7c1.4 2.5 1.5 5.5.1 8l-46.2 81.3c-1.4 2.5-4 4-6.9 4l-93.5.6c-2.9 0-5.5-1.5-7-4l-47.3-80.7c-1.4-2.5-1.5-5.5-.1-8l46.2-81.3c1.4-2.4 4.1-4 6.9-4zM-163.8 379.1L-97.6 487M-152.4 397.7l51.8-88.6M-109 324.3h98M-32.2 324.3l53 92M-110 467.5l82.6-.7M-37.4 486.7l46.1-91.5"/><text transform="translate(-108.244 405.796)" class="st0 st4">Graphic Design</text><text transform="translate(-73.944 417.796)" class="st0 st4">&amp;</text><text transform="translate(-102.044 429.796)" class="st0 st4">Web Services</text></svg>