<?xml version="1.0" encoding="utf-8"?>
<!-- Generator: Adobe Illustrator 19.1.0, SVG Export Plug-In . SVG Version: 6.00 Build 0)  -->
<svg version="1.1" id="Layer_1" xmlns="http://www.w3.org/2000/svg" xmlns:xlink="http://www.w3.org/1999/xlink" x="0px" y="0px"
	 viewBox="-188 296.1 234.9 201.9" style="enable-background:new -188 296.1 234.9 201.9;" xml:space="preserve">
<style type="text/css">
	.st0{font-family:'Marion-Regular';}
	.st1{font-size:36px;}
	.st2{fill:#FFFFFF;stroke:#000000;stroke-miterlimit:10;}
	.st3{fill:none;stroke:#000000;stroke-width:3;stroke-miterlimit:10;}
	.st4{font-size:12px;}
</style>
<text transform="matrix(1 0 0 1 -99.2645 387.2913)" class="st0 st1">T.G.</text>
<path class="st2" d="M28.2,526.3"/>
<path class="st3" d="M-46.5,448.8l-49.4,0.3c-2.9,0-5.5-1.5-6.9-4l-24.9-42.7c-1.4-2.5-1.5-5.5,0-8l24.5-42.9c1.4-2.5,4.1-4,6.9-4
	l49.4-0.2c2.9,0,5.5,1.5,6.9,4l24.9,42.7c1.4,2.5,1.5,5.5,0,8l-24.5,42.9C-41,447.3-43.7,448.8-46.5,448.8z"/>
<path class="st2" d="M-140.1,446.8"/>
<path class="st2" d="M2.6,446.8"/>
<path class="st3" d="M-118.5,309.2l93.5-0.6c2.9,0,5.5,1.5,7,4l47.3,80.7c1.4,2.5,1.5,5.5,0.1,8l-46.2,81.3c-1.4,2.5-4,4-6.9,4
	l-93.5,0.6c-2.9,0-5.5-1.5-7-4l-47.3-80.7c-1.4-2.5-1.5-5.5-0.1-8l46.2-81.3C-124,310.8-121.3,309.2-118.5,309.2z"/>
<line class="st3" x1="-163.8" y1="379.1" x2="-97.6" y2="487"/>
<line class="st3" x1="-152.4" y1="397.7" x2="-100.6" y2="309.1"/>
<line class="st3" x1="-109" y1="324.3" x2="-11" y2="324.3"/>
<line class="st3" x1="-32.2" y1="324.3" x2="20.8" y2="416.3"/>
<path class="st3" d="M-49,487.2"/>
<path class="st3" d="M-37.4,486.7"/>
<line class="st3" x1="-110" y1="467.5" x2="-27.4" y2="466.8"/>
<line class="st3" x1="-37.4" y1="486.7" x2="8.7" y2="395.2"/>
<text transform="matrix(1 0 0 1 -108.2438 405.7964)" class="st0 st4">Graphic Design</text>
<text transform="matrix(1 0 0 1 -73.9438 417.7964)" class="st0 st4">&amp;</text>
<text transform="matrix(1 0 0 1 -102.0438 429.7964)" class="st0 st4">Web Services</text>
</svg>
